<?xml version="1.0" standalone="no"?>
<!DOCTYPE svg PUBLIC "-//W3C//DTD SVG 20010904//EN"
 "http://www.w3.org/TR/2001/REC-SVG-20010904/DTD/svg10.dtd">
<svg version="1.0" xmlns="http://www.w3.org/2000/svg"
 width="224.000000pt" height="224.000000pt" viewBox="0 0 224.000000 224.000000"
 preserveAspectRatio="xMidYMid meet">
<metadata>
Created by potrace 1.14, written by Peter Selinger 2001-2017
</metadata>
<g transform="translate(0.000000,224.000000) scale(0.100000,-0.100000)"
fill="#000000" stroke="none">
<path d="M0 1120 l0 -1120 1120 0 1120 0 0 1120 0 1120 -1120 0 -1120 0 0
-1120z m1294 681 c59 -21 100 -45 57 -34 -12 3 -21 1 -21 -6 0 -6 -7 -11 -16
-11 -8 0 -12 5 -9 10 3 6 2 10 -4 10 -5 0 -13 -5 -16 -11 -4 -6 -13 -8 -21 -5
-8 3 -21 3 -30 -1 -13 -5 -10 -9 12 -19 l29 -13 -35 7 c-19 4 -75 7 -125 7
-101 0 -170 -18 -247 -66 -44 -27 -53 -28 -49 -6 1 4 -8 3 -19 -3 -11 -6 -20
-15 -20 -20 0 -6 -5 -10 -11 -10 -5 0 -7 5 -4 11 4 6 -2 5 -13 -2 -12 -7 -18
-18 -15 -24 3 -5 0 -4 -7 2 -11 10 -21 4 -53 -30 l-39 -42 17 35 c45 88 190
193 320 232 82 24 236 19 319 -11z m-490 -160 c3 -5 -2 -15 -12 -22 -15 -12
-16 -12 -5 2 7 9 10 19 6 22 -3 4 -4 7 0 7 3 0 8 -4 11 -9z m-34 -45 c0 -2 -8
-10 -17 -17 -16 -13 -17 -12 -4 4 13 16 21 21 21 13z m117 -393 c25 -17 39
-50 118 -296 49 -150 56 -181 46 -200 -7 -13 -10 -15 -6 -4 7 25 -5 73 -15 57
-4 -6 -30 -13 -58 -16 l-51 -4 -19 53 c-34 90 -131 381 -134 401 -6 36 69 41
119 9z m585 8 c6 -5 -145 -467 -157 -479 -3 -3 -5 3 -5 14 0 16 -2 17 -10 4
-6 -10 -10 -11 -10 -2 0 15 -25 16 -50 0 -16 -10 -23 -10 -35 3 -14 14 -9 35
51 218 67 209 87 245 137 254 24 4 68 -2 79 -12z m-852 -59 c4 -56 3 -66 -17
-84 -13 -12 -23 -17 -23 -12 0 5 -5 38 -10 72 -10 75 -5 94 24 90 18 -3 22
-11 26 -66z m1047 57 c7 -7 10 -24 8 -38 -2 -14 -7 -48 -10 -75 l-7 -49 -21
21 c-21 22 -33 87 -22 130 6 24 33 30 52 11z m-882 -261 c84 -257 78 -237 63
-217 -14 17 -37 14 -54 -8 -9 -11 -24 24 -69 164 -60 185 -67 221 -45 247 28
35 39 15 105 -186z m780 172 c15 -28 13 -37 -40 -200 -30 -93 -55 -173 -55
-176 0 -4 -8 3 -19 14 -10 12 -23 22 -30 22 -18 0 -14 21 44 200 59 179 71
196 100 140z m-895 -224 c17 -59 29 -111 26 -114 -3 -3 -6 1 -6 9 0 12 -2 11
-10 -1 -8 -12 -11 -13 -19 -1 -5 8 -11 9 -15 3 -3 -6 3 -14 15 -17 11 -4 18
-9 15 -12 -3 -3 -17 2 -32 11 -33 22 -63 89 -64 140 0 41 37 114 50 99 5 -4
22 -57 40 -117z m974 80 c21 -45 20 -91 -4 -143 -20 -44 -36 -59 -25 -22 6 18
5 20 -14 10 -18 -10 -21 -9 -21 6 0 15 -2 16 -10 3 -21 -33 -19 1 5 81 33 110
33 111 44 105 5 -3 16 -21 25 -40z"/>
</g>
</svg>
